<svg xmlns="http://www.w3.org/2000/svg" xmlns:xlink="http://www.w3.org/1999/xlink" width="1000" zoomAndPan="magnify" viewBox="0 0 750 110.999996" height="148" preserveAspectRatio="xMidYMid meet" version="1.0"><defs><g/></defs><g fill="#ffffff" fillOpacity="1"><g transform="translate(1.473442, 85.410525)"><g><path d="M 108.921875 0 L 81.359375 0 L 75.25 -10.625 L 34.34375 -10.625 L 28.25 0 L 0.671875 0 L 42.171875 -64.8125 L 67.4375 -64.8125 Z M 66.078125 -26.671875 L 54.828125 -46.328125 L 43.53125 -26.671875 Z M 66.078125 -26.671875 "/></g></g></g><g fill="#ffffff" fillOpacity="1"><g transform="translate(111.073261, 85.410525)"><g><path d="M 113.71875 0 L 78.375 0 L 50.53125 -21.6875 L 34.4375 -10.71875 L 34.4375 0 L 7.234375 0 L 7.234375 -64.859375 L 34.4375 -64.859375 L 34.4375 -34.84375 L 78.09375 -64.859375 L 113.71875 -64.859375 L 67.25 -33.125 Z M 113.71875 0 "/></g></g></g><g fill="#ffffff" fillOpacity="1"><g transform="translate(225.463835, 85.410525)"><g><path d="M 113.71875 0 L 78.375 0 L 50.53125 -21.6875 L 34.4375 -10.71875 L 34.4375 0 L 7.234375 0 L 7.234375 -64.859375 L 34.4375 -64.859375 L 34.4375 -34.84375 L 78.09375 -64.859375 L 113.71875 -64.859375 L 67.25 -33.125 Z M 113.71875 0 "/></g></g></g><g fill="#ffffff" fillOpacity="1"><g transform="translate(339.85441, 85.410525)"><g><path d="M 34.4375 0 L 7.234375 0 L 7.234375 -64.859375 L 34.4375 -64.859375 Z M 34.4375 0 "/></g></g></g><g fill="#ffffff" fillOpacity="1"><g transform="translate(381.524959, 85.410525)"><g><path d="M 82.9375 0 L 7.234375 0 L 7.234375 -64.859375 L 34.4375 -64.859375 L 34.4375 -16.046875 L 82.9375 -16.046875 Z M 82.9375 0 "/></g></g></g><g fill="#ffffff" fillOpacity="1"><g transform="translate(466.267066, 85.410525)"><g/></g></g><g fill="#ffffff" fillOpacity="1"><g transform="translate(489.226533, 85.410525)"><g><path d="M 130.53125 0 L 103.3125 0 L 103.3125 -41.359375 L 79 0 L 58.703125 0 L 34.4375 -41.359375 L 34.4375 0 L 7.234375 0 L 7.234375 -64.859375 L 39.546875 -64.859375 L 68.875 -18.53125 L 98.171875 -64.859375 L 130.53125 -64.859375 Z M 130.53125 0 "/></g></g></g><g fill="#ffffff" fillOpacity="1"><g transform="translate(626.983334, 85.410525)"><g/></g></g><g fill="#ffffff" fillOpacity="1"><g transform="translate(649.942801, 85.410525)"><g><path d="M 49.03125 1.40625 C 33.007812 1.40625 21.21875 -1.894531 13.65625 -8.5 C 6.957031 -14.34375 3.609375 -22.296875 3.609375 -32.359375 C 3.609375 -42.453125 6.957031 -50.421875 13.65625 -56.265625 C 21.21875 -62.867188 33.007812 -66.171875 49.03125 -66.171875 C 58.164062 -66.171875 65.757812 -65.144531 71.8125 -63.09375 C 77.875 -61.039062 82.628906 -58.242188 86.078125 -54.703125 C 89.523438 -51.171875 91.882812 -47.097656 93.15625 -42.484375 L 64.046875 -42.484375 C 61.003906 -46.671875 56 -48.765625 49.03125 -48.765625 C 42.46875 -48.765625 37.632812 -46.882812 34.53125 -43.125 C 32.0625 -40.070312 30.828125 -36.484375 30.828125 -32.359375 C 30.828125 -28.234375 32.0625 -24.664062 34.53125 -21.65625 C 37.632812 -17.882812 42.46875 -16 49.03125 -16 C 54.34375 -16 58.332031 -16.457031 61 -17.375 C 63.664062 -18.289062 65.613281 -19.488281 66.84375 -20.96875 L 56.21875 -20.96875 L 56.21875 -32.359375 L 93.15625 -32.359375 L 93.15625 0.046875 L 81.84375 0.046875 L 79.546875 -6.234375 C 72.347656 -1.140625 62.175781 1.40625 49.03125 1.40625 Z M 49.03125 1.40625 "/></g></g></g></svg>